<?xml version="1.0" encoding="UTF-8"?>
<svg width="24px" height="24px" viewBox="0 0 24 24" version="1.1" xmlns="http://www.w3.org/2000/svg" xmlns:xlink="http://www.w3.org/1999/xlink">
    <!-- Generator: Sketch 42 (36781) - http://www.bohemiancoding.com/sketch -->
    <title>Shape</title>
    <desc>Created with Sketch.</desc>
    <defs></defs>
    <g id="Page-1" stroke="none" stroke-width="1" fill="none" fill-rule="evenodd">
        <g id="Desktop-HD" transform="translate(-191.000000, -633.000000)" fill-rule="nonzero" fill="#FFFFFF">
            <g id="Group-8" transform="translate(167.000000, 279.000000)">
                <g id="Information" transform="translate(0.000000, 15.000000)">
                    <g id="Group-2" transform="translate(0.000000, 314.000000)">
                        <g id="Group-4" transform="translate(24.000000, 22.000000)">
                            <g id="Facebook-Filled" transform="translate(0.000000, 3.000000)">
                                <path d="M19.2,0 L4.8,0 C2.15328,0 0,2.15328 0,4.8 L0,19.2 C0,21.84672 2.15328,24 4.8,24 L19.2,24 C21.84672,24 24,21.84672 24,19.2 L24,4.8 C24,2.15328 21.84672,0 19.2,0 Z M18.72,8.16 L17.28,8.16 C16.2504,8.16 15.84,8.40192 15.84,9.12 L15.84,10.56 L18.72,10.56 L18.24,13.44 L15.84,13.44 L15.84,23.04 L12.48,23.04 L12.48,13.44 L11.04,13.44 L11.04,10.56 L12.48,10.56 L12.48,9.12 C12.48,6.87504 13.23888,5.28 15.84,5.28 C17.23296,5.28 18.72,5.76 18.72,5.76 L18.72,8.16 Z" id="Shape"></path>
                            </g>
                        </g>
                    </g>
                </g>
            </g>
        </g>
    </g>
</svg>