<?xml version="1.0" encoding="UTF-8"?>
<svg width="24px" height="20px" viewBox="0 0 24 20" version="1.1" xmlns="http://www.w3.org/2000/svg" xmlns:xlink="http://www.w3.org/1999/xlink">
    <!-- Generator: Sketch 42 (36781) - http://www.bohemiancoding.com/sketch -->
    <title>Shape</title>
    <desc>Created with Sketch.</desc>
    <defs></defs>
    <g id="Page-1" stroke="none" stroke-width="1" fill="none" fill-rule="evenodd">
        <g id="Desktop-HD" transform="translate(-529.000000, -635.000000)" fill-rule="nonzero" fill="#FFFFFF">
            <g id="Group-8" transform="translate(167.000000, 279.000000)">
                <g id="Information" transform="translate(0.000000, 15.000000)">
                    <g id="Group-3" transform="translate(337.000000, 314.000000)">
                        <g id="Group-5" transform="translate(25.000000, 22.000000)">
                            <g id="Twitter-Filled" transform="translate(0.000000, 5.000000)">
                                <path d="M24,2.30897229 C23.1160591,2.70066439 22.1679536,2.9645059 21.1710062,3.08469504 C22.1885437,2.47513018 22.9700126,1.50930748 23.3368049,0.361046268 C22.3858263,0.924642365 21.3304603,1.33453044 20.209493,1.55479739 C19.3121446,0.597114982 18.0322021,0 16.6162686,0 C13.8964506,0 11.6918657,2.2045849 11.6918657,4.92344526 C11.6918657,5.30891243 11.7359191,5.68432394 11.820674,6.0453702 C7.72849704,5.83994733 4.09983839,3.87957144 1.67067696,0.900700305 C1.2469025,1.62949662 1.00460885,2.47560903 1.00460885,3.37726701 C1.00460885,5.08529359 1.87226911,6.59172802 3.19482851,7.47614772 C2.38654456,7.4502903 1.62853894,7.22858682 0.964865027,6.85940025 L0.964865027,6.92212845 C0.964865027,9.30867301 2.66187825,11.295864 4.91291076,11.7507632 C4.50110732,11.8637697 4.06584067,11.923146 3.61668762,11.923146 C3.29873706,11.923146 2.98988448,11.8925001 2.68869336,11.8340815 C3.31741186,13.7882325 5.13461423,15.2147004 7.28892081,15.2544442 C5.6048363,16.5746094 3.4816544,17.3608667 1.17411863,17.3608667 C0.77524391,17.3608667 0.384509487,17.3378823 0,17.2919136 C2.1777698,18.689651 4.76734303,19.5036811 7.54749506,19.5036811 C16.6047764,19.5036811 21.5583887,12.0011971 21.5583887,5.49661818 C21.5583887,5.28209732 21.5531214,5.06853415 21.5440235,4.8588017 C22.5055366,4.16448195 23.3406357,3.29634285 24,2.30897229 Z" id="Shape"></path>
                            </g>
                        </g>
                    </g>
                </g>
            </g>
        </g>
    </g>
</svg>